<svg xmlns="http://www.w3.org/2000/svg" xmlns:xlink="http://www.w3.org/1999/xlink" width="77" height="46" viewBox="0 0 77 46">
  <defs>
    <clipPath id="clip-path">
      <path id="Tracé_89" data-name="Tracé 89" d="M0-14.235H32.808V-40.48H0Z" transform="translate(0 40.48)" fill="none"/>
    </clipPath>
  </defs>
  <g id="Groupe_145" data-name="Groupe 145" transform="translate(-0.173 -54)" opacity="0.824">
    <g id="Rectangle_7" data-name="Rectangle 7" transform="translate(0.173 54)" fill="none" stroke="#f8f4f4" stroke-width="1">
      <rect width="77" height="46" stroke="none"/>
      <rect x="0.5" y="0.5" width="76" height="45" fill="none"/>
    </g>
    <g id="Groupe_133" data-name="Groupe 133" transform="translate(22.192 63.458)">
      <g id="Groupe_132" data-name="Groupe 132" transform="translate(0 0)" clip-path="url(#clip-path)">
        <g id="Groupe_129" data-name="Groupe 129" transform="translate(0.648 0.648)">
          <path id="Tracé_86" data-name="Tracé 86" d="M-9.43-13.382c1,.618,1.8.168,1.8-1V-36.779c0-1.172-.8-1.616-1.8-.991l-10.235,6.454v.008s-.58.008-1.3.008h-3.74a2.123,2.123,0,0,0-2.123,2.123v7.369a2.123,2.123,0,0,0,2.123,2.123h5.036V-19.7c0-.01.808.484,1.8,1.1Z" transform="translate(26.815 38.053)" fill="none" stroke="#fff" stroke-width="2"/>
        </g>
        <g id="Groupe_130" data-name="Groupe 130" transform="translate(23.621 4.556)">
          <path id="Tracé_87" data-name="Tracé 87" d="M0-9.262A8.539,8.539,0,0,0,8.539-17.8,8.539,8.539,0,0,0,0-26.339" transform="translate(0 26.339)" fill="none" stroke="#fff" stroke-width="2"/>
        </g>
        <g id="Groupe_131" data-name="Groupe 131" transform="translate(23.621 8.182)">
          <path id="Tracé_88" data-name="Tracé 88" d="M0-5.329a4.913,4.913,0,0,0,4.912-4.912A4.912,4.912,0,0,0,0-15.153" transform="translate(0 15.153)" fill="none" stroke="#fff" stroke-width="2"/>
        </g>
      </g>
    </g>
  </g>
</svg>
