<svg xmlns="http://www.w3.org/2000/svg" width="77" height="46" viewBox="0 0 77 46">
  <g id="Groupe_443" data-name="Groupe 443" transform="translate(-0.173 -54)" opacity="0.824">
    <g id="Rectangle_7" data-name="Rectangle 7" transform="translate(0.173 54)" fill="none" stroke="#f8f4f4" stroke-width="1">
      <rect width="77" height="46" stroke="none"/>
      <rect x="0.5" y="0.5" width="76" height="45" fill="none"/>
    </g>
    <g id="Groupe_133" data-name="Groupe 133" transform="translate(22.192 63.458)">
      <g id="Groupe_444" data-name="Groupe 444" transform="translate(0 0)">
        <g id="Groupe_129" data-name="Groupe 129" transform="translate(0.648 0.648)">
          <path id="Tracé_86" data-name="Tracé 86" d="M-9.43-13.382c1,.618,1.8.168,1.8-1V-36.779c0-1.172-.8-1.616-1.8-.991l-10.235,6.454v.008s-.58.008-1.3.008h-3.74a2.123,2.123,0,0,0-2.123,2.123v7.369a2.123,2.123,0,0,0,2.123,2.123h5.036V-19.7c0-.01.808.484,1.8,1.1Z" transform="translate(26.815 38.053)" fill="none" stroke="#fff" stroke-width="2"/>
        </g>
      </g>
    </g>
  </g>
</svg>
